<?xml version="1.0" encoding="UTF-8" standalone="no"?>
<!-- Created with Inkscape (http://www.inkscape.org/) -->

<svg
   xmlns:dc="http://purl.org/dc/elements/1.1/"
   xmlns:cc="http://creativecommons.org/ns#"
   xmlns:rdf="http://www.w3.org/1999/02/22-rdf-syntax-ns#"
   xmlns:svg="http://www.w3.org/2000/svg"
   xmlns="http://www.w3.org/2000/svg"
   xmlns:sodipodi="http://sodipodi.sourceforge.net/DTD/sodipodi-0.dtd"
   xmlns:inkscape="http://www.inkscape.org/namespaces/inkscape"
   width="240mm"
   height="120mm"
   viewBox="0 0 240 120"
   version="1.1"
   id="svg8"
   inkscape:version="0.92.5 (2060ec1f9f, 2020-04-08)"
   sodipodi:docname="design-diagram.svg">
  <defs
     id="defs2" />
  <sodipodi:namedview
     id="base"
     pagecolor="#ffffff"
     bordercolor="#666666"
     borderopacity="1.0"
     inkscape:pageopacity="0.0"
     inkscape:pageshadow="2"
     inkscape:zoom="0.99437388"
     inkscape:cx="284.27627"
     inkscape:cy="182.72055"
     inkscape:document-units="mm"
     inkscape:current-layer="layer1"
     showgrid="false"
     showborder="true"
     width="200mm"
     showguides="true"
     inkscape:guide-bbox="true"
     inkscape:window-width="1908"
     inkscape:window-height="1119"
     inkscape:window-x="1920"
     inkscape:window-y="0"
     inkscape:window-maximized="1"
     inkscape:snap-global="true">
    <inkscape:grid
       type="xygrid"
       id="grid815"
       units="mm"
       spacingx="10"
       spacingy="10"
       empspacing="4"
       dotted="false" />
  </sodipodi:namedview>
  <metadata
     id="metadata5">
    <rdf:RDF>
      <cc:Work
         rdf:about="">
        <dc:format>image/svg+xml</dc:format>
        <dc:type
           rdf:resource="http://purl.org/dc/dcmitype/StillImage" />
        <dc:title />
      </cc:Work>
    </rdf:RDF>
  </metadata>
  <g
     inkscape:label="Layer 1"
     inkscape:groupmode="layer"
     id="layer1"
     transform="translate(0,-177)">
    <path
       style="fill:none;stroke:#000000;stroke-width:0.26458332px;stroke-linecap:butt;stroke-linejoin:miter;stroke-opacity:1"
       d="m 120.26831,204.13796 c -0.35477,-0.0887 -0.7282,-0.12202 -1.06432,-0.26608 -0.29393,-0.12597 -0.51222,-0.38914 -0.79824,-0.53216 -0.47373,-0.23686 -1.73829,-0.48879 -2.12864,-0.53216 -0.35261,-0.0392 -0.70955,0 -1.06433,0 -0.88693,0 -1.77387,0 -2.6608,0 -1.3304,0 -2.6608,0 -3.99121,0 -0.44346,0 -0.89139,-0.0627 -1.3304,0 -1.99386,0.28484 -3.95061,0.9621 -5.85376,1.59648 -4.983029,1.66101 -1.539533,0.34594 -4.789449,1.86257 -0.791578,0.3694 -1.594435,0.71419 -2.394723,1.06432 -0.618837,0.27074 -1.258406,0.49616 -1.862563,0.79824 -1.565027,0.78251 -2.304971,1.35328 -3.725125,2.39472 -0.715229,0.5245 -1.419095,1.06432 -2.128644,1.59648 -0.709546,0.53216 -1.461156,1.01243 -2.128642,1.59649 -0.755173,0.66077 -1.419095,1.41909 -2.128641,2.12864 -1.36365,1.36365 -2.804721,2.7318 -3.991205,4.25728 -0.588995,0.75728 -1.102892,1.57208 -1.596483,2.39473 -0.931889,1.55314 -1.996305,3.59391 -2.660803,5.3216 -0.131276,0.34132 -0.183852,0.708 -0.266081,1.06432 -0.410065,1.77695 -0.79824,3.49145 -0.79824,5.32161 0,3.5407 -0.0878,0.1863 0.266081,3.72512 0.02647,0.26477 -0.06454,0.54011 0,0.79825 0.324535,1.29814 0.731448,1.62276 1.596479,2.6608 0.935194,1.12223 2.457776,1.56538 3.725127,2.12864 2.26835,1.00816 -3.829052,-1.34851 2.926882,1.06432 2.754672,0.98381 0.448429,0.58124 5.321607,1.59649 0.786273,0.1638 1.600115,0.14922 2.394722,0.26608 2.221646,0.32671 4.44064,0.67408 6.652009,1.06432 9.444572,1.66669 -11.752784,-1.37488 9.046732,1.59648 0.8824,0.12606 1.7749,0.16765 2.6608,0.26608 2.30713,0.25635 4.61096,0.54189 6.91809,0.79824 0.88591,0.0984 1.78035,0.12706 2.66081,0.26608 0.8077,0.12753 1.58261,0.43662 2.39472,0.53216 2.20918,0.25991 4.43166,0.3976 6.65201,0.53216 0.70824,0.0429 1.41909,0 2.12864,0 1.24171,0 2.48341,0 3.72512,0 2.31555,0 -0.19283,0.0353 3.72513,-0.26608 0.26529,-0.0204 0.53733,0.0522 0.79824,0 0.72071,-0.14414 0.43724,-0.42199 1.06432,-0.79824 0.2405,-0.1443 0.54738,-0.14065 0.79824,-0.26608 0.11219,-0.0561 0.17739,-0.17739 0.26608,-0.26608 0.26608,-0.26608 0.57247,-0.4972 0.79824,-0.79824 0.19188,-0.25583 0.33239,-0.54853 0.53216,-0.79824 1.51657,-1.89572 -0.57362,1.12651 1.06432,-1.3304 0.83203,-1.24805 1.71056,-2.52792 2.12865,-3.99121 0.17229,-0.60302 0.13003,-1.25034 0.26608,-1.86256 0.043,-0.1936 0.24634,-0.33482 0.26608,-0.53216 0.0706,-0.70603 0,-1.4191 0,-2.12864 0,-0.70955 0,-1.4191 0,-2.12865 0,-0.97562 0,-1.95125 0,-2.92688 0,-0.62085 0.0878,-1.24795 0,-1.86256 -0.20838,-1.45862 -1.05906,-3.17981 -1.59648,-4.52337 -0.10417,-0.26041 -0.17023,-0.53465 -0.26608,-0.79824 -0.25383,-0.69801 -1.19641,-3.27107 -1.59649,-3.9912 -0.12183,-0.2193 -0.40769,-0.31435 -0.53216,-0.53216 -0.23697,-0.4147 -0.34401,-0.8914 -0.53216,-1.33041 -0.31249,-0.72915 -0.70955,-1.41909 -1.06432,-2.12864 -0.0887,-0.17739 -0.15607,-0.36714 -0.26608,-0.53216 -0.24599,-0.36899 -0.59992,-0.66767 -0.79824,-1.06432 -0.66504,-1.33007 0.82286,0.29686 -0.26608,-1.06432 -0.26608,-0.26608 -0.53216,-0.53216 -0.79824,-0.79824 0,-0.17739 0.0913,-0.38006 0,-0.53217 -0.1936,-0.32267 -0.57247,-0.4972 -0.79824,-0.79824 -0.0532,-0.071 0.028,-0.18193 0,-0.26608 -0.0627,-0.18814 -0.15607,-0.36714 -0.26608,-0.53216 -0.13916,-0.20873 -0.41997,-0.30778 -0.53216,-0.53216 -0.18351,-0.36702 0.32223,-0.238 -0.26608,-0.53216 -0.0793,-0.0397 -0.18675,0.0397 -0.26608,0 -0.11219,-0.0561 -0.17739,-0.17738 -0.26608,-0.26608 -0.0887,-0.0887 -0.20999,-0.15389 -0.26609,-0.26608 -0.0397,-0.0793 0.0793,-0.22641 0,-0.26608 -0.31731,-0.15866 -0.72775,0.11219 -1.06432,0 -0.37629,-0.12543 -0.70954,-0.35477 -1.06432,-0.53216 -0.17738,-0.0887 -0.33975,-0.21798 -0.53216,-0.26608 -1.50814,-0.37704 0.73582,0.65224 -1.3304,-0.26608 -0.54369,-0.24164 -1.07638,-0.5093 -1.59648,-0.79824 -0.27955,-0.1553 -0.49881,-0.41988 -0.79824,-0.53216 -0.42346,-0.1588 -0.90695,-0.10729 -1.33041,-0.26608 -0.29942,-0.11229 -0.52706,-0.36267 -0.79824,-0.53216 -0.45283,-0.28303 -1.80175,-1.11863 -2.39472,-1.3304 -0.87204,-0.31145 -1.79654,-0.46584 -2.6608,-0.79825 -0.29847,-0.11479 -0.50133,-0.41339 -0.79824,-0.53215 -0.1647,-0.0659 -0.35719,0.0292 -0.53216,0 -0.36072,-0.0601 -0.70573,-0.19437 -1.06432,-0.26609 -0.087,-0.0174 -0.18194,0.0281 -0.26608,0 -0.18815,-0.0627 -0.34402,-0.20336 -0.53217,-0.26608 -0.0841,-0.028 -0.17738,0 -0.26607,0 -0.35478,0 -0.70955,0 -1.06433,0"
       id="path8"
       inkscape:connector-curvature="0" />
    <path
       style="fill:none;stroke:#000000;stroke-width:0.26458332px;stroke-linecap:butt;stroke-linejoin:miter;stroke-opacity:1"
       d="m 97.917562,226.75479 c -0.328631,0.8273 -0.266081,1.53975 -0.266081,2.39472 0,0.17739 -0.04302,0.36007 0,0.53217 0.0481,0.1924 0.187958,0.34987 0.266081,0.53216 0.188146,0.43901 0.344012,0.89139 0.532159,1.3304 0.07812,0.18229 0.147088,0.3735 0.266081,0.53216 0.150519,0.20069 0.354775,0.35477 0.532162,0.53216 0.266078,0.26608 0.509162,0.55734 0.798236,0.79824 0.24567,0.20472 0.53802,0.34629 0.79824,0.53216 0.36087,0.25776 0.70955,0.53216 1.06433,0.79824 1.1689,0.87668 1.16595,0.97363 2.6608,1.59648 0.5178,0.21575 1.08717,0.29709 1.59648,0.53216 0.64926,0.29966 1.18826,0.82633 1.86256,1.06432 0.85294,0.30104 1.77571,0.34583 2.66081,0.53217 0.80017,0.16845 1.58701,0.40462 2.39472,0.53216 2.24411,0.35433 3.06222,0.26608 5.32161,0.26608 2.08758,0 4.03254,0.0321 6.11984,-0.26608 0.27766,-0.0397 0.53783,-0.16192 0.79825,-0.26608 0.62715,-0.25087 1.24763,-0.51873 1.86256,-0.79825 0.54164,-0.2462 1.06432,-0.53215 1.59648,-0.79824 0.17739,-0.0887 0.39192,-0.12584 0.53216,-0.26608 0.0627,-0.0627 -0.0627,-0.20336 0,-0.26608 0.0627,-0.0627 0.20337,0.0627 0.26608,0 0.67209,-0.67209 0.10225,-0.30673 0.26608,-0.79824 0.0627,-0.18814 0.15607,-0.36714 0.26608,-0.53216 0.0696,-0.10436 0.22642,-0.14708 0.26608,-0.26608 0.0561,-0.16828 0,-0.35477 0,-0.53216 0,-0.44347 -0.087,-0.89554 0,-1.3304 0.0389,-0.19447 0.22719,-0.33769 0.26608,-0.53216 0.087,-0.43486 0,-0.88694 0,-1.3304"
       id="path10"
       inkscape:connector-curvature="0" />
    <path
       style="fill:black;stroke:black;stroke-width:0.14044083;stroke-linecap:butt;stroke-linejoin:miter;stroke-opacity:1;fill-opacity:0.12;marker-end:none;marker-start:none;stroke-dasharray:0.14044083,0.70220417"
       d="m 108.2947,213.98294 c -1.2172,-0.3648 -2.47409,-0.26608 -3.72513,-0.26608 -0.17739,0 -0.35477,0 -0.53216,0 -0.26608,0 -0.54011,-0.0645 -0.79824,0 -0.12169,0.0304 -0.16574,0.19082 -0.26608,0.26608 -0.25583,0.19187 -0.54241,0.34028 -0.79824,0.53216 -0.20069,0.15051 -0.32343,0.393 -0.53216,0.53216 -0.16502,0.11001 -0.37351,0.14708 -0.53217,0.26608 -0.30103,0.22577 -0.48514,0.58951 -0.79824,0.79824 -0.16501,0.11001 -0.39192,0.12584 -0.532157,0.26608 -0.140237,0.14024 -0.125844,0.39192 -0.266081,0.53216 -0.140234,0.14024 -0.391922,0.12584 -0.532159,0.26608 -0.140237,0.14024 -0.125844,0.39192 -0.266081,0.53216 -0.140237,0.14024 -0.391924,0.12584 -0.532161,0.26608 -0.140235,0.14024 -0.15607,0.36715 -0.266079,0.53216 -0.161478,0.24222 -0.680323,0.5624 -0.798242,0.79824 -0.03966,0.0793 0,0.17739 0,0.26608 0,0.0887 0,0.17739 0,0.26608 0,0.0887 -0.06271,0.20337 0,0.26608 0.672094,0.6721 0.306734,0.10225 0.798242,0.26608 0.188146,0.0627 0.336534,0.23348 0.532159,0.26608 0.524921,0.0875 1.064321,0 1.596479,0 0.44347,0 0.88694,0 1.33041,0 0.17738,0 0.36159,0.0487 0.53216,0 0.45925,-0.13121 0.90319,-0.31856 1.3304,-0.53216 0.11219,-0.0561 0.16813,-0.18772 0.26608,-0.26608 0.34629,-0.27703 0.71803,-0.52121 1.06432,-0.79824 0.0979,-0.0784 0.20998,-0.15389 0.26608,-0.26608 0.0397,-0.0793 -0.0397,-0.18675 0,-0.26608 0.55368,-1.10736 -0.0184,0.28445 0.53216,-0.26608 0.0627,-0.0627 -0.0627,-0.20336 0,-0.26608 0.0627,-0.0627 0.22642,0.0793 0.26608,0 0.0793,-0.15866 -0.0561,-0.36388 0,-0.53216 0.0397,-0.11899 0.20999,-0.15389 0.26608,-0.26608 0.0528,-0.1055 -0.0544,-0.74385 0,-0.79824 0.0627,-0.0627 0.20337,0.0627 0.26608,0 0.0627,-0.0627 0,-0.17739 0,-0.26608 0,-0.53216 0,-1.06432 0,-1.59648 0,-0.0887 -0.0627,-0.20337 0,-0.26609 0.12543,-0.12543 0.40673,0.12544 0.53216,0 0.0627,-0.0627 -0.0627,-0.20336 0,-0.26607 0.0627,-0.0627 0.20337,0.0627 0.26608,0 0.0627,-0.0627 -0.0627,-0.20337 0,-0.26608 0.0627,-0.0627 0.20337,0.0627 0.26608,0 0.0627,-0.0627 0,-0.17739 0,-0.26609 0.35478,0.17739 0.70955,0.35478 1.06433,0.53217 z"
       id="path12"
       inkscape:connector-curvature="0" />
    <path
       style="fill:black;stroke:black;stroke-width:0.14044083;stroke-linecap:butt;stroke-linejoin:miter;stroke-opacity:1;fill-opacity:0.12;marker-end:none;marker-start:none;stroke-dasharray:0.14044083,0.70220417"
       d="m 125.32384,217.44198 c -0.44347,-0.35477 -0.83732,-0.78256 -1.33041,-1.06432 -0.15401,-0.088 -0.35477,0 -0.53216,0 -0.50494,0 -1.18969,-0.14071 -1.59648,0.26608 -0.14024,0.14023 -0.12584,0.39192 -0.26608,0.53216 -0.76255,0.76255 -0.73084,0.36542 -1.59648,0.79824 -0.30504,0.15252 -0.37012,0.55518 -0.53216,0.79824 -0.0696,0.10437 -0.17739,0.17739 -0.26608,0.26608 -1.15088,1.15088 -0.0417,-0.0705 -0.79824,1.06432 -0.0696,0.10437 -0.20999,0.15389 -0.26608,0.26608 -0.0397,0.0793 0.0397,0.18676 0,0.26608 -0.11219,0.22438 -0.45284,0.29417 -0.53217,0.53216 -0.0561,0.16829 0.0561,0.36388 0,0.53217 -0.12543,0.37629 -0.38484,0.69604 -0.53215,1.06432 -0.0329,0.0824 0.0397,0.18675 0,0.26608 -0.0561,0.11219 -0.20999,0.15389 -0.26609,0.26608 -0.0481,0.0962 0,1.14533 0,1.3304 0,0.0887 0,0.17738 0,0.26608 0,0.0887 -0.0627,0.20336 0,0.26608 0.30575,0.30574 0.47057,0.26608 0.79824,0.26608 0.0887,0 0.18195,-0.028 0.26609,0 0.18814,0.0627 0.33975,0.21798 0.53216,0.26608 0.17209,0.043 0.35477,0 0.53216,0 0.17738,0 0.35477,0 0.53216,0 0.53216,0 1.06432,0 1.59648,0 0.17739,0 0.36007,0.043 0.53216,0 0.1924,-0.0481 0.35477,-0.17739 0.53216,-0.26608 0.35478,-0.17739 0.68803,-0.40673 1.06432,-0.53216 0.0842,-0.0281 0.18675,0.0397 0.26608,0 0.22438,-0.11219 0.30778,-0.41997 0.53216,-0.53216 0.0793,-0.0397 0.20337,0.0627 0.26608,0 0.0627,-0.0627 -0.0627,-0.20337 0,-0.26608 0.0627,-0.0627 0.20337,0.0627 0.26608,0 0.0627,-0.0627 -0.0627,-0.20337 0,-0.26608 0.0627,-0.0627 0.20337,0.0627 0.26608,0 0.0627,-0.0627 -0.0397,-0.18675 0,-0.26608 0.11219,-0.22438 0.41998,-0.30778 0.53217,-0.53216 0.0397,-0.0793 0,-0.17739 0,-0.26608 0.0887,-0.17739 0.15607,-0.36715 0.26607,-0.53216 0.13916,-0.20873 0.41998,-0.30779 0.53217,-0.53216 0.0354,-0.0709 0,-1.47611 0,-1.59649 0,-0.18777 0.0407,-1.52864 0,-1.59648 -0.22817,-0.38027 -0.53217,-0.70955 -0.79824,-1.06432 z"
       id="path14"
       inkscape:connector-curvature="0" />
    <path
       style="fill:black;stroke:black;stroke-width:0.14044083;stroke-linecap:butt;stroke-linejoin:miter;stroke-opacity:1;fill-opacity:0.12;marker-end:none;marker-start:none;stroke-dasharray:0.14044083,0.70220417"
       d="m 107.23037,213.45077 -6.652,4.25729"
       id="path24"
       inkscape:connector-curvature="0" />
    <path
       style="fill:black;stroke:black;stroke-width:0.14044083;stroke-linecap:butt;stroke-linejoin:miter;stroke-opacity:1;fill-opacity:0.12;marker-end:none;marker-start:none;stroke-dasharray:0.14044083,0.70220417"
       d="m 109.89118,224.36007 c -0.59693,0.93928 -0.53216,1.00319 -0.53216,1.86256 0,0.0887 0.0397,0.18675 0,0.26608 -0.0561,0.11219 -0.20999,0.15389 -0.26608,0.26608 -0.0397,0.0793 0,0.17739 0,0.26608 0,0.0887 0,0.17739 0,0.26608 0,0.44347 0,0.88694 0,1.3304 0,0.44347 0,0.88694 0,1.3304 0,0.0887 -0.0627,0.20337 0,0.26609 0.0627,0.0627 0.17738,0 0.26608,0 0.0887,0 0.20336,0.0627 0.26608,0 0.0627,-0.0627 -0.0627,-0.20337 0,-0.26609 0.0627,-0.0627 0.20336,0.0627 0.26608,0 0.0627,-0.0627 -0.0627,-0.20336 0,-0.26607 0.0627,-0.0627 0.20336,0.0627 0.26608,0 0.0627,-0.0627 -0.0397,-0.18675 0,-0.26608 0.0561,-0.1122 0.20998,-0.1539 0.26608,-0.26609 0.0397,-0.0793 -0.0397,-0.18675 0,-0.26608 0.0561,-0.11218 0.20998,-0.15389 0.26608,-0.26608 0.0793,-0.15866 -0.0793,-0.3735 0,-0.53216 0.11219,-0.22438 0.41997,-0.30778 0.53216,-0.53216 0.10643,-0.21286 -0.10643,-0.58538 0,-0.79824 0.0561,-0.11219 0.20998,-0.15389 0.26608,-0.26608 0.0397,-0.0793 0,-0.17739 0,-0.26608 0,-0.53216 0,-1.06432 0,-1.59648 0,-0.0887 0.0627,-0.20337 0,-0.26608 -0.0627,-0.0627 -0.20337,0.0627 -0.26608,0 -0.0627,-0.0627 0.0627,-0.20337 0,-0.26608 -0.0627,-0.0627 -0.17911,-0.0174 -0.26608,0 -0.35859,0.0717 -0.70955,0.17739 -1.06432,0.26608 z"
       id="path13"
       inkscape:connector-curvature="0" />
    <path
       style="fill:none;stroke:#000000;stroke-width:0.26458332px;stroke-linecap:butt;stroke-linejoin:miter;stroke-opacity:1"
       d="M 164.43764,225.15831 -53.482147,217.70806"
       id="path23"
       inkscape:connector-curvature="0" />
  </g>
</svg>
